<?xml version="1.0" encoding="utf-8"?>
<!-- Generator: Adobe Illustrator 18.1.1, SVG Export Plug-In . SVG Version: 6.00 Build 0)  -->
<svg version="1.1" id="Layer_1" xmlns="http://www.w3.org/2000/svg" xmlns:xlink="http://www.w3.org/1999/xlink" x="0px" y="0px"
	 width="200px" height="200px" viewBox="0 0 200 200" enable-background="new 0 0 200 200" xml:space="preserve">
<path fill="#fe5f55" d="M164.3,95.2h-9.7c-7.1,0-13,5.8-13,13v8.9c0,2.5-2,4.5-4.5,4.5c-2.5,0-4.5-2-4.5-4.5V42.1c0-7.8-6.3-14.1-14.1-14.1
	c-7.8,0-14.1,6.3-14.1,14.1v115.8c0,2.5-2,4.5-4.5,4.5s-4.5-2-4.5-4.5V65.6c0-7.8-6.3-14.1-14.1-14.1c-7.8,0-14.1,6.3-14.1,14.1
	v51.1c0,2.5-1.8,4.7-4,4.9c-1.3,0.1-2.5-0.3-3.5-1.1c-1-0.9-1.5-2-1.5-3.3v-8.9c0-7.1-5.8-13-13-13h-9.7c-2.7,0-4.8,2.1-4.8,4.8
	c0,2.7,2.1,4.8,4.8,4.8h9.7c1.8,0,3.4,1.5,3.4,3.4v8.9c0,4,1.7,7.8,4.6,10.4c2.9,2.7,6.9,4,10.9,3.6c7.1-0.7,12.7-7,12.7-14.4V65.6
	c0-2.5,2-4.5,4.5-4.5s4.5,2,4.5,4.5v92.3c0,7.8,6.3,14.1,14.1,14.1s14.1-6.3,14.1-14.1V42.1c0-2.5,2-4.5,4.5-4.5s4.5,2,4.5,4.5V117
	c0,7.8,6.3,14.1,14.1,14.1s14.1-6.3,14.1-14.1v-8.9c0-1.8,1.5-3.4,3.4-3.4h9.7c2.7,0,4.8-2.1,4.8-4.8
	C169.1,97.3,167,95.2,164.3,95.2z"/>
</svg>
